<svg width="18" height="17" viewBox="0 0 18 17" fill="none" xmlns="http://www.w3.org/2000/svg">
<path d="M10.3468 15.8613L9.45497 16.7256C9.07734 17.0915 8.46669 17.0915 8.09307 16.7256L0.283227 9.16178C-0.0944091 8.79586 -0.0944091 8.20415 0.283227 7.84211L8.09307 0.274445C8.47071 -0.0914816 9.08135 -0.0914816 9.45497 0.274445L10.3468 1.13865C10.7285 1.50847 10.7205 2.11186 10.3308 2.47389L5.48979 6.94287H17.0358C17.5701 6.94287 18 7.3594 18 7.87715V9.12285C18 9.6406 17.5701 10.0571 17.0358 10.0571H5.48979L10.3308 14.5261C10.7245 14.8881 10.7325 15.4915 10.3468 15.8613Z" fill="#FF8C40"/>
</svg>
