<svg width="120" height="34" fill="none" xmlns="http://www.w3.org/2000/svg"><g clip-path="url(#clip0_30_262)" fill-rule="evenodd" clip-rule="evenodd"><path d="M21.8 6.018c0 3.04-2.444 5.498-5.449 5.498s-5.448-2.465-5.448-5.498c0-3.041 2.443-5.5 5.448-5.5 3.005 0 5.448 2.467 5.448 5.5z" fill="#F60"/><path d="M32.695 6.018c0 3.04-2.443 5.498-5.448 5.498-3.005 0-5.448-2.465-5.448-5.498 0-3.033 2.435-5.5 5.448-5.5 3.012 0 5.448 2.467 5.448 5.5zM21.8 28.02c0 3.041-2.444 5.499-5.449 5.499s-5.448-2.466-5.448-5.499c0-3.04 2.443-5.498 5.448-5.498 3.005 0 5.448 2.465 5.448 5.498z" fill="#F60"/><path d="M32.695 28.02c0 3.041-2.443 5.499-5.448 5.499-3.005 0-5.448-2.466-5.448-5.499 0-3.033 2.443-5.498 5.448-5.498 3.005 0 5.448 2.465 5.448 5.498zM10.896 17.015c0 3.04-2.443 5.499-5.448 5.499-3.005 0-5.448-2.458-5.448-5.5 0-3.04 2.443-5.498 5.448-5.498 3.005 0 5.448 2.466 5.448 5.499zm10.904 0c0 3.04-2.444 5.499-5.449 5.499s-5.448-2.466-5.448-5.5c0-3.032 2.443-5.498 5.448-5.498 3.005 0 5.448 2.466 5.448 5.499z" fill="#F60"/><path d="M73.124 12.43a4.17 4.17 0 00-1.662.331 4.46 4.46 0 00-1.413.961v-1.095h-1.67v12.037h1.646v-4.183c.453.441.937.764 1.468.985.53.22 1.108.33 1.732.33.703 0 1.327-.11 1.874-.338.546-.22 1.053-.575 1.514-1.04.429-.441.757-.937.983-1.505a4.705 4.705 0 00.343-1.78c0-1.347-.452-2.466-1.365-3.364-.913-.89-2.06-1.339-3.442-1.339h-.008zm2.17 6.901a3.074 3.074 0 01-2.217.898c-.858 0-1.569-.307-2.177-.93-.61-.622-.914-1.378-.914-2.26 0-.82.313-1.544.93-2.159.616-.614 1.334-.922 2.145-.922a3.09 3.09 0 012.248.914c.61.615.921 1.37.921 2.277 0 .859-.312 1.583-.928 2.182h-.008zm-24.125-5.609a4.758 4.758 0 00-1.546-1.032 4.786 4.786 0 00-1.857-.347c-.624 0-1.225.134-1.803.394-.578.26-1.1.63-1.561 1.111-.43.441-.75.93-.968 1.481a4.766 4.766 0 00-.328 1.773c0 .63.125 1.197.367 1.78a4.72 4.72 0 001.007 1.528c.453.457.96.812 1.53 1.04.57.236 1.186.355 1.857.355a4.46 4.46 0 001.858-.386 4.735 4.735 0 001.569-1.135c.406-.433.718-.937.944-1.52a4.877 4.877 0 00.336-1.788c0-.615-.117-1.182-.36-1.75a4.827 4.827 0 00-1.037-1.52l-.008.016zm-1.17 5.593c-.579.599-1.289.898-2.14.898-.85 0-1.592-.299-2.17-.89-.577-.599-.873-1.34-.873-2.23 0-.89.288-1.646.874-2.244.577-.6 1.303-.899 2.154-.899.85 0 1.584.292 2.154.883.578.59.866 1.339.866 2.237 0 .898-.288 1.647-.866 2.245zm-12.567-5.357c.632 0 1.179.134 1.631.41.453.268.828.678 1.116 1.229h1.811c-.351-1.024-.913-1.82-1.686-2.38-.772-.566-1.685-.85-2.74-.85a4.8 4.8 0 00-1.896.378 4.808 4.808 0 00-1.592 1.119c-.43.449-.75.945-.976 1.489a4.644 4.644 0 00-.327 1.749c0 .622.125 1.197.366 1.78a4.72 4.72 0 001.007 1.528c.453.457.953.804 1.507 1.032a4.852 4.852 0 001.857.347c1.085 0 2.006-.276 2.763-.835.757-.56 1.327-1.37 1.71-2.45h-1.811c-.266.543-.625.961-1.093 1.252a2.911 2.911 0 01-1.569.442c-.858 0-1.584-.3-2.162-.89-.577-.6-.866-1.34-.866-2.23 0-.89.289-1.623.858-2.221a2.767 2.767 0 012.084-.899h.008zm25.795-1.48c-.67 0-1.248.125-1.717.377-.468.253-.843.639-1.131 1.159-.281-.528-.648-.922-1.093-1.174-.445-.252-1-.37-1.663-.37-.491 0-.928.102-1.319.299-.382.197-.725.496-1.038.898v-1.048H53.8v8.934h1.569v-4.57c0-1.04.171-1.804.507-2.3.336-.496.859-.74 1.569-.74s1.186.244 1.506.74c.313.496.476 1.284.476 2.371v4.506h1.6v-4.67c0-1.064.156-1.828.469-2.277.312-.449.827-.677 1.545-.677.617 0 1.093.213 1.436.63.344.425.515 1.016.515 1.78v5.208h1.663v-5.46c0-1.103-.313-1.977-.937-2.63-.624-.663-1.452-.986-2.49-.986zm49.483 1.228a4.371 4.371 0 00-1.444-.984 4.462 4.462 0 00-1.732-.323c-.703 0-1.327.11-1.873.338-.547.22-1.054.575-1.515 1.04a4.43 4.43 0 00-.975 1.49 4.751 4.751 0 00-.344 1.787c0 1.348.453 2.474 1.366 3.364.913.898 2.061 1.347 3.434 1.347a4.215 4.215 0 003.075-1.3v1.095h1.671v-8.933h-1.671v1.08h.008zm-.843 5.601c-.616.615-1.334.922-2.146.922-.89 0-1.639-.307-2.256-.914-.616-.614-.921-1.37-.921-2.276 0-.906.305-1.592.921-2.183.617-.598 1.358-.89 2.225-.89.866 0 1.576.315 2.193.938.617.622.921 1.378.921 2.253 0 .82-.312 1.544-.929 2.158l-.008-.008zm6.9-6.53c-.351.189-.664.488-.937.882v-1.032h-1.553v8.933h1.647v-4.97c0-.82.164-1.418.484-1.789.32-.37.851-.583 1.592-.638v-1.678a2.51 2.51 0 00-1.233.3v-.008zm-16.843 3.545c-.148-.055-.343-.126-.593-.22-.89-.324-1.335-.726-1.335-1.23 0-.291.102-.536.297-.732.195-.197.445-.3.741-.3.328 0 .593.095.781.276.195.181.304.441.335.772h1.585c-.047-.804-.297-1.434-.757-1.883-.461-.449-1.085-.67-1.866-.67-.78 0-1.39.253-1.904.765a2.49 2.49 0 00-.78 1.851c0 .425.077.796.234 1.119.156.323.397.606.725.866.18.142.594.331 1.241.567.242.087.437.158.57.213.39.15.671.339.851.551.172.221.265.481.265.796 0 .355-.125.654-.374.883-.25.228-.562.346-.945.346-.406 0-.741-.15-1.014-.457-.274-.307-.406-.693-.406-1.166h-1.553c.046.97.335 1.733.858 2.293.523.56 1.21.835 2.061.835.85 0 1.545-.268 2.099-.796.554-.528.835-1.197.835-2 0-.686-.148-1.238-.445-1.647-.296-.41-.796-.757-1.498-1.032h-.008zM87.29 14.069a6.65 6.65 0 00-1.343-1.04 4.835 4.835 0 00-1.389-.536 5.034 5.034 0 00-2.326.095 4.71 4.71 0 00-1.99 1.158 4.511 4.511 0 00-1.062 1.552 4.362 4.362 0 00-.288 1.843c.023.615.156 1.19.398 1.725a4.867 4.867 0 002.599 2.482 5.096 5.096 0 001.818.394 4.72 4.72 0 001.842-.308 4.491 4.491 0 001.265-.764v-2.316.055c0-.031-.008-.15-.078-.04-.281.426-.39.52-.773.899a2.95 2.95 0 01-1.897.867c-.725.055-1.412-.134-2.052-.568l5.463-5.317-.18-.181h-.007zm-6.291 4.435c-.375-.646-.53-1.292-.453-1.954.078-.662.367-1.237.882-1.733.5-.488 1.077-.764 1.725-.827.648-.063 1.32.094 1.998.473l-4.144 4.033-.008.008zm11.988-6.027c-.53 0-1.006.095-1.42.284-.414.189-.796.48-1.14.882v-1.016h-1.584v8.933h1.655v-4.057c0-1.236.187-2.127.554-2.67.367-.536.967-.812 1.787-.812.757 0 1.32.229 1.678.686.36.457.546 1.158.546 2.103v4.743h1.663v-5.09c0-1.284-.32-2.268-.96-2.954-.64-.685-1.561-1.032-2.763-1.032h-.016z" fill="#000"/></g><defs><clipPath id="clip0_30_262"><path fill="#fff" transform="translate(0 .519)" d="M0 0h120v33H0z"/></clipPath></defs></svg>